<svg xmlns="http://www.w3.org/2000/svg" viewBox="0 0 512 512"><path d="M16.516 280.774c0 48.171 75.388 140.387 239.484 140.387s239.484-92.215 239.484-140.387H16.516z" fill="#bee178"/><path d="M256.001 284.903H16.516s0 37.161 41.29 37.161c33.032 0 115.613-18.581 198.194-18.581s165.162 18.581 198.194 18.581c41.29 0 41.29-37.161 41.29-37.161H256.001z" fill="#d2f0a0"/><path d="M500.458 242.797c-38.006-28.088-118.687-74.975-161.877-92.501-19.267-7.818-33.032-18.168-82.581-18.168s-63.314 10.349-82.581 18.168c-43.19 17.526-123.871 64.413-161.877 92.501C5.012 247.623 0 255.363 0 264.734c0 13.419 9.065 24.298 20.248 24.298h471.504c11.182 0 20.248-10.879 20.248-24.298 0-9.371-5.011-17.111-11.542-21.937z" fill="#82c35f"/><g fill="#5a9646"><path d="M214.71 247.742a8.253 8.253 0 0 1-8.258-8.258v-8.258c0-4.565 3.693-8.258 8.258-8.258s8.258 3.693 8.258 8.258v8.258a8.253 8.253 0 0 1-8.258 8.258zM297.291 247.742a8.253 8.253 0 0 1-8.258-8.258v-8.258a8.253 8.253 0 0 1 8.258-8.258 8.253 8.253 0 0 1 8.258 8.258v8.258a8.253 8.253 0 0 1-8.258 8.258z"/></g><path d="M94.968 227.774c70.194 0 93.708-38.28 101.408-56.714 2.876-6.885 2.327-14.686-1.442-21.125-12.507-21.37-48.382-71.099-104.756-56.435-14.69 3.821-24.318 17.977-23.392 33.128 2.125 34.757 10.036 101.146 28.182 101.146z" fill="#96cd78"/><path d="M148.645 198.193s-24.032 29.58-53.678 29.58-53.678-27.73-53.678-61.936 24.032-61.936 53.678-61.936c28.904.001 53.678 60.086 53.678 94.292z" fill="#73af55"/><path d="M70.194 140.387c-9.114 0-17.688 1.085-25.206 2.985a70.064 70.064 0 0 0-3.698 22.466 70.059 70.059 0 0 0 3.698 22.466c7.518 1.9 16.092 2.985 25.206 2.985 29.645 0 45.419-11.395 45.419-25.451s-15.774-25.451-45.419-25.451z" fill="#464655"/><path d="M417.033 227.774c-70.194 0-93.708-38.28-101.408-56.714-2.876-6.885-2.327-14.686 1.442-21.125 12.507-21.369 48.382-71.098 104.756-56.434 14.69 3.821 24.318 17.977 23.392 33.128-2.126 34.756-10.036 101.145-28.182 101.145z" fill="#96cd78"/><path d="M363.356 198.193s24.032 29.58 53.678 29.58 53.678-27.73 53.678-61.936-24.032-61.936-53.678-61.936c-28.904.001-53.678 60.086-53.678 94.292z" fill="#73af55"/><path d="M441.807 140.387c9.114 0 17.688 1.085 25.206 2.985a70.091 70.091 0 0 1 0 44.932c-7.518 1.9-16.092 2.985-25.206 2.985-29.645 0-45.419-11.395-45.419-25.451s15.774-25.451 45.419-25.451z" fill="#464655"/></svg>